# xmcd CD database file
#
# Track frame offsets:
#	150
#	19886
#	50726
#	73713
#	113151
#	137913
#	162252
#
# Disc length: 2485 seconds
#
# Revision: 0
# Processed by: cddbd v1.5.2PL0 Copyright (c) Steve Scherf et al.
# Submitted via: CDex 1.51
#
DISCID=6309b307
DTITLE=Alberta Adams - Live AA
DYEAR=2002
DGENRE=Blues
TTITLE0=Say Baby Say
TTITLE1=Baby What You Want Me to Do
TTITLE2=Hey May be Your Man
TTITLE3=Reconsider You
TTITLE4=Going Home Tomorrow
TTITLE5=Hello Little Boy
TTITLE6=Born with the Blues
EXTD=YEAR: 2002
EXTT0=
EXTT1=
EXTT2=
EXTT3=
EXTT4=
EXTT5=
EXTT6=
PLAYORDER=
